<svg class="main-svg" xmlns="http://www.w3.org/2000/svg" xmlns:xlink="http://www.w3.org/1999/xlink" width="700" height="500" viewBox="0 0 700 500"><rect x="0" y="0" width="700" height="500" style="fill: rgb(255, 255, 255); fill-opacity: 1;"/><defs id="defs-d555db"><g class="clips"><clipPath id="clipd555dbxyplot" class="plotclip"><rect width="372" height="320"/></clipPath><clipPath class="axesclip" id="clipd555dbx"><rect x="80" y="0" width="372" height="500"/></clipPath><clipPath class="axesclip" id="clipd555dby"><rect x="0" y="100" width="700" height="320"/></clipPath><clipPath class="axesclip" id="clipd555dbxy"><rect x="80" y="100" width="372" height="320"/></clipPath></g><g class="gradients"/></defs><g class="bglayer"><rect class="bg" x="80" y="100" width="372" height="320" style="fill: rgb(229, 236, 246); fill-opacity: 1; stroke-width: 0;"/></g><g class="layer-below"><g class="imagelayer"/><g class="shapelayer"/></g><g class="cartesianlayer"><g class="subplot xy"><g class="layer-subplot"><g class="shapelayer"/><g class="imagelayer"/></g><g class="gridlayer"><g class="x"><path class="xgrid crisp" transform="translate(154.4,0)" d="M0,100v320" style="stroke: rgb(255, 255, 255); stroke-opacity: 1; stroke-width: 1px;"/><path class="xgrid crisp" transform="translate(228.8,0)" d="M0,100v320" style="stroke: rgb(255, 255, 255); stroke-opacity: 1; stroke-width: 1px;"/><path class="xgrid crisp" transform="translate(303.2,0)" d="M0,100v320" style="stroke: rgb(255, 255, 255); stroke-opacity: 1; stroke-width: 1px;"/><path class="xgrid crisp" transform="translate(377.6,0)" d="M0,100v320" style="stroke: rgb(255, 255, 255); stroke-opacity: 1; stroke-width: 1px;"/></g><g class="y"><path class="ygrid crisp" transform="translate(0,346.4)" d="M80,0h372" style="stroke: rgb(255, 255, 255); stroke-opacity: 1; stroke-width: 1px;"/><path class="ygrid crisp" transform="translate(0,288.8)" d="M80,0h372" style="stroke: rgb(255, 255, 255); stroke-opacity: 1; stroke-width: 1px;"/><path class="ygrid crisp" transform="translate(0,231.2)" d="M80,0h372" style="stroke: rgb(255, 255, 255); stroke-opacity: 1; stroke-width: 1px;"/><path class="ygrid crisp" transform="translate(0,173.6)" d="M80,0h372" style="stroke: rgb(255, 255, 255); stroke-opacity: 1; stroke-width: 1px;"/><path class="ygrid crisp" transform="translate(0,116)" d="M80,0h372" style="stroke: rgb(255, 255, 255); stroke-opacity: 1; stroke-width: 1px;"/></g></g><g class="zerolinelayer"><path class="xzl zl crisp" transform="translate(80,0)" d="M0,100v320" style="stroke: rgb(255, 255, 255); stroke-opacity: 1; stroke-width: 2px;"/><path class="yzl zl crisp" transform="translate(0,404)" d="M80,0h372" style="stroke: rgb(255, 255, 255); stroke-opacity: 1; stroke-width: 2px;"/></g><path class="xlines-below"/><path class="ylines-below"/><g class="overlines-below"/><g class="xaxislayer-below"/><g class="yaxislayer-below"/><g class="overaxes-below"/><g class="plot" transform="translate(80, 100)" clip-path="url('#clipd555dbxyplot')"><g class="scatterlayer mlayer"><g class="trace scatter tracea01459" style="stroke-miterlimit: 2; opacity: 1;"><g class="fills"/><g class="errorbars"/><g class="lines"><path class="js-line" d="M0,304L0,300.84L1.18,300.84L1.18,297.67L3.53,297.67L3.53,296.09L4.71,296.09L4.71,294.51L7.06,294.51L7.06,286.59L8.24,286.59L8.24,280.26L9.42,280.26L9.42,278.68L10.59,278.68L10.59,277.1L11.77,277.1L11.77,275.52L14.13,275.52L14.13,266.02L15.3,266.02L15.3,264.44L16.48,264.44L16.48,256.53L18.84,256.53L18.84,251.78L20.01,251.78L20.01,250.2L21.19,250.2L21.19,247.03L22.37,247.03L22.37,243.87L23.54,243.87L23.54,242.29L24.72,242.29L24.72,237.54L25.9,237.54L25.9,234.37L27.08,234.37L27.08,228.04L29.43,228.04L29.43,226.46L30.61,226.46L30.61,221.71L31.78,221.71L31.78,220.13L34.14,220.13L34.14,216.97L35.32,216.97L35.32,213.8L36.49,213.8L36.49,209.05L37.67,209.05L37.67,207.47L41.2,207.47L41.2,205.89L43.56,205.89L43.56,197.98L45.91,197.98L45.91,194.81L47.09,194.81L47.09,190.07L48.27,190.07L48.27,180.57L49.44,180.57L49.44,178.99L50.62,178.99L50.62,177.41L51.8,177.41L51.8,175.82L54.15,175.82L54.15,172.66L57.68,172.66L57.68,164.75L62.39,164.75L62.39,163.16L65.92,163.16L65.92,161.58L67.1,161.58L67.1,156.84L68.28,156.84L68.28,153.67L69.46,153.67L69.46,148.92L71.81,148.92L71.81,145.76L74.16,145.76L74.16,144.18L77.7,144.18L77.7,136.26L78.87,136.26L78.87,129.93L81.23,129.93L81.23,126.77L83.58,126.77L83.58,125.19L84.76,125.19L84.76,114.11L85.94,114.11L85.94,109.36L88.29,109.36L88.29,107.78L98.89,107.78L98.89,104.62L101.24,104.62L101.24,103.03L103.59,103.03L103.59,99.87L104.77,99.87L104.77,98.29L107.13,98.29L107.13,96.7L109.48,96.7L109.48,95.12L115.37,95.12L115.37,93.54L116.54,93.54L116.54,91.96L121.25,91.96L121.25,88.79L122.43,88.79L122.43,85.63L125.96,85.63L125.96,84.04L134.2,84.04L134.2,82.46L136.56,82.46L136.56,77.71L140.09,77.71L140.09,76.13L143.62,76.13L143.62,74.55L148.33,74.55L148.33,72.97L149.51,72.97L149.51,71.38L151.86,71.38L151.86,69.8L153.04,69.8L153.04,66.64L154.22,66.64L154.22,65.05L155.39,65.05L155.39,63.47L156.57,63.47L156.57,61.89L163.63,61.89L163.63,60.31L171.87,60.31L171.87,57.14L175.41,57.14L175.41,55.56L177.76,55.56L177.76,50.81L197.77,50.81L197.77,49.23L198.95,49.23L198.95,47.65L204.84,47.65L204.84,46.07L207.19,46.07L207.19,42.9L213.08,42.9L213.08,41.32L216.61,41.32L216.61,39.74L221.32,39.74L221.32,38.15L223.67,38.15L223.67,36.57L224.85,36.57L224.85,34.99L231.91,34.99L231.91,33.41L241.33,33.41L241.33,30.24L247.22,30.24L247.22,28.66L260.16,28.66L260.16,27.08L262.52,27.08L262.52,25.49L273.11,25.49L273.11,23.91L274.29,23.91L274.29,22.33L275.47,22.33L275.47,20.75L281.35,20.75L281.35,19.16L303.72,19.16L303.72,17.58L311.96,17.58L311.96,16L372,16" style="vector-effect: non-scaling-stroke; fill: none; stroke: rgb(99, 110, 250); stroke-opacity: 1; stroke-width: 2px; opacity: 1;"/></g><g class="points"/><g class="text"/></g><g class="trace scatter trace4af426" style="stroke-miterlimit: 2; opacity: 1;"><g class="fills"/><g class="errorbars"/><g class="lines"><path class="js-line" d="M0,304L0,302.21L2.1,302.21L2.1,300.41L4.2,300.41L4.2,298.62L6.31,298.62L6.31,297.72L8.41,297.72L8.41,282.47L10.51,282.47L10.51,264.52L12.61,264.52L12.61,263.63L14.71,263.63L14.71,259.14L16.81,259.14L16.81,254.65L18.92,254.65L18.92,248.37L23.12,248.37L23.12,242.09L27.32,242.09L27.32,198.13L29.42,198.13L29.42,191.85L33.63,191.85L33.63,183.78L35.73,183.78L35.73,160.45L37.83,160.45L37.83,147.89L39.93,147.89L39.93,144.3L42.03,144.3L42.03,142.5L48.34,142.5L48.34,141.61L52.54,141.61L52.54,129.05L54.64,129.05L54.64,123.66L58.85,123.66L58.85,121.87L60.95,121.87L60.95,119.18L63.05,119.18L63.05,112.9L65.15,112.9L65.15,111.1L67.25,111.1L67.25,108.41L69.36,108.41L69.36,104.82L71.46,104.82L71.46,97.64L73.56,97.64L73.56,88.67L75.66,88.67L75.66,87.78L77.76,87.78L77.76,84.19L79.86,84.19L79.86,79.7L86.17,79.7L86.17,77.01L88.27,77.01L88.27,70.73L90.37,70.73L90.37,67.14L92.47,67.14L92.47,63.55L96.68,63.55L96.68,62.65L98.78,62.65L98.78,59.96L107.19,59.96L107.19,59.07L111.39,59.07L111.39,58.17L113.49,58.17L113.49,55.48L115.59,55.48L115.59,52.79L117.69,52.79L117.69,50.99L119.8,50.99L119.8,49.2L124,49.2L124,48.3L126.1,48.3L126.1,46.5L130.31,46.5L130.31,44.71L132.41,44.71L132.41,43.81L136.61,43.81L136.61,42.92L140.81,42.92L140.81,42.02L142.92,42.02L142.92,41.12L147.12,41.12L147.12,40.22L153.42,40.22L153.42,38.43L168.14,38.43L168.14,36.64L178.64,36.64L178.64,35.74L201.76,35.74L201.76,34.84L203.86,34.84L203.86,32.15L205.97,32.15L205.97,31.25L210.17,31.25L210.17,30.36L216.47,30.36L216.47,29.46L218.58,29.46L218.58,28.56L220.68,28.56L220.68,27.66L231.19,27.66L231.19,26.77L237.49,26.77L237.49,24.97L239.59,24.97L239.59,24.07L241.69,24.07L241.69,23.18L258.51,23.18L258.51,20.49L273.22,20.49L273.22,19.59L327.86,19.59L327.86,17.79L348.88,17.79L348.88,16.9L353.08,16.9L353.08,16L372,16" style="vector-effect: non-scaling-stroke; fill: none; stroke: rgb(239, 85, 59); stroke-opacity: 1; stroke-width: 2px; opacity: 1;"/></g><g class="points"/><g class="text"/></g><g class="trace scatter traceace071" style="stroke-miterlimit: 2; opacity: 1;"><g class="fills"/><g class="errorbars"/><g class="lines"><path class="js-line" d="M0,304L0,300.84L2.1,300.84L2.1,297.67L4.2,297.67L4.2,296.09L6.31,296.09L6.31,294.51L8.41,294.51L8.41,275.52L10.51,275.52L10.51,251.78L12.61,251.78L12.61,250.2L14.71,250.2L14.71,243.87L16.81,243.87L16.81,237.54L18.92,237.54L18.92,228.04L23.12,228.04L23.12,220.13L27.32,220.13L27.32,172.66L29.42,172.66L29.42,164.75L33.63,164.75L33.63,156.84L35.73,156.84L35.73,129.93L37.83,129.93L37.83,114.11L39.93,114.11L39.93,109.36L42.03,109.36L42.03,107.78L52.54,107.78L52.54,98.29L54.64,98.29L54.64,95.12L58.85,95.12L58.85,93.54L60.95,93.54L60.95,91.96L63.05,91.96L63.05,85.63L65.15,85.63L65.15,84.04L69.36,84.04L69.36,82.46L71.46,82.46L71.46,76.13L73.56,76.13L73.56,71.38L75.66,71.38L75.66,69.8L77.76,69.8L77.76,65.05L79.86,65.05L79.86,61.89L86.17,61.89L86.17,60.31L88.27,60.31L88.27,57.14L90.37,57.14L90.37,55.56L92.47,55.56L92.47,50.81L113.49,50.81L113.49,47.65L117.69,47.65L117.69,46.07L119.8,46.07L119.8,42.9L126.1,42.9L126.1,41.32L130.31,41.32L130.31,39.74L136.61,39.74L136.61,38.15L140.81,38.15L140.81,36.57L142.92,36.57L142.92,34.99L153.42,34.99L153.42,33.41L168.14,33.41L168.14,30.24L178.64,30.24L178.64,28.66L201.76,28.66L201.76,27.08L203.86,27.08L203.86,25.49L216.47,25.49L216.47,23.91L218.58,23.91L218.58,22.33L220.68,22.33L220.68,20.75L231.19,20.75L231.19,19.16L258.51,19.16L258.51,17.58L273.22,17.58L273.22,16L372,16" style="vector-effect: non-scaling-stroke; fill: none; stroke: rgb(0, 204, 150); stroke-opacity: 1; stroke-width: 2px; opacity: 1;"/></g><g class="points"/><g class="text"/></g></g></g><g class="overplot"/><path class="xlines-above crisp" d="M0,0" style="fill: none;"/><path class="ylines-above crisp" d="M0,0" style="fill: none;"/><g class="overlines-above"/><g class="xaxislayer-above"><g class="xtick"><text text-anchor="middle" x="0" y="433" transform="translate(80,0)" style="font-family: 'Open Sans', verdana, arial, sans-serif; font-size: 12px; fill: rgb(42, 63, 95); fill-opacity: 1; white-space: pre;">0</text></g><g class="xtick"><text text-anchor="middle" x="0" y="433" transform="translate(154.4,0)" style="font-family: 'Open Sans', verdana, arial, sans-serif; font-size: 12px; fill: rgb(42, 63, 95); fill-opacity: 1; white-space: pre;">0.2</text></g><g class="xtick"><text text-anchor="middle" x="0" y="433" transform="translate(228.8,0)" style="font-family: 'Open Sans', verdana, arial, sans-serif; font-size: 12px; fill: rgb(42, 63, 95); fill-opacity: 1; white-space: pre;">0.4</text></g><g class="xtick"><text text-anchor="middle" x="0" y="433" transform="translate(303.2,0)" style="font-family: 'Open Sans', verdana, arial, sans-serif; font-size: 12px; fill: rgb(42, 63, 95); fill-opacity: 1; white-space: pre;">0.6</text></g><g class="xtick"><text text-anchor="middle" x="0" y="433" transform="translate(377.6,0)" style="font-family: 'Open Sans', verdana, arial, sans-serif; font-size: 12px; fill: rgb(42, 63, 95); fill-opacity: 1; white-space: pre;">0.8</text></g><g class="xtick"><text text-anchor="middle" x="0" y="433" transform="translate(452,0)" style="font-family: 'Open Sans', verdana, arial, sans-serif; font-size: 12px; fill: rgb(42, 63, 95); fill-opacity: 1; white-space: pre;">1</text></g></g><g class="yaxislayer-above"><g class="ytick"><text text-anchor="end" x="79" y="4.199999999999999" transform="translate(0,404)" style="font-family: 'Open Sans', verdana, arial, sans-serif; font-size: 12px; fill: rgb(42, 63, 95); fill-opacity: 1; white-space: pre;">0</text></g><g class="ytick"><text text-anchor="end" x="79" y="4.199999999999999" transform="translate(0,346.4)" style="font-family: 'Open Sans', verdana, arial, sans-serif; font-size: 12px; fill: rgb(42, 63, 95); fill-opacity: 1; white-space: pre;">0.2</text></g><g class="ytick"><text text-anchor="end" x="79" y="4.199999999999999" transform="translate(0,288.8)" style="font-family: 'Open Sans', verdana, arial, sans-serif; font-size: 12px; fill: rgb(42, 63, 95); fill-opacity: 1; white-space: pre;">0.4</text></g><g class="ytick"><text text-anchor="end" x="79" y="4.199999999999999" transform="translate(0,231.2)" style="font-family: 'Open Sans', verdana, arial, sans-serif; font-size: 12px; fill: rgb(42, 63, 95); fill-opacity: 1; white-space: pre;">0.6</text></g><g class="ytick"><text text-anchor="end" x="79" y="4.199999999999999" transform="translate(0,173.6)" style="font-family: 'Open Sans', verdana, arial, sans-serif; font-size: 12px; fill: rgb(42, 63, 95); fill-opacity: 1; white-space: pre;">0.8</text></g><g class="ytick"><text text-anchor="end" x="79" y="4.199999999999999" transform="translate(0,116)" style="font-family: 'Open Sans', verdana, arial, sans-serif; font-size: 12px; fill: rgb(42, 63, 95); fill-opacity: 1; white-space: pre;">1</text></g></g><g class="overaxes-above"/></g></g><g class="polarlayer"/><g class="ternarylayer"/><g class="geolayer"/><g class="funnelarealayer"/><g class="pielayer"/><g class="treemaplayer"/><g class="sunburstlayer"/><g class="glimages"/><defs id="topdefs-d555db"><g class="clips"/><clipPath id="legendd555db"><rect width="229" height="67" x="0" y="0"/></clipPath></defs><g class="layer-above"><g class="imagelayer"/><g class="shapelayer"/></g><g class="infolayer"><g class="legend" pointer-events="all" transform="translate(459.44, 100)"><rect class="bg" shape-rendering="crispEdges" width="229" height="67" x="0" y="0" style="stroke: rgb(68, 68, 68); stroke-opacity: 1; fill: rgb(255, 255, 255); fill-opacity: 1; stroke-width: 0px;"/><g class="scrollbox" transform="translate(0, 0)" clip-path="url('#legendd555db')"><g class="groups"><g class="traces" transform="translate(0, 14.5)" style="opacity: 1;"><text class="legendtext user-select-none" text-anchor="start" x="40" y="4.680000000000001" style="font-family: 'Open Sans', verdana, arial, sans-serif; font-size: 12px; fill: rgb(42, 63, 95); fill-opacity: 1; white-space: pre;">positive vs. neutral &amp; negative</text><g class="layers" style="opacity: 1;"><g class="legendfill"/><g class="legendlines"><path class="js-line" d="M5,0h30" style="fill: none; stroke: rgb(99, 110, 250); stroke-opacity: 1; stroke-width: 2px;"/></g><g class="legendsymbols"><g class="legendpoints"/></g></g><rect class="legendtoggle" pointer-events="all" x="0" y="-9.5" width="223.84375" height="19" style="cursor: pointer; fill: rgb(0, 0, 0); fill-opacity: 0;"/></g><g class="traces" transform="translate(0, 33.5)" style="opacity: 1;"><text class="legendtext user-select-none" text-anchor="start" x="40" y="4.680000000000001" style="font-family: 'Open Sans', verdana, arial, sans-serif; font-size: 12px; fill: rgb(42, 63, 95); fill-opacity: 1; white-space: pre;">negative vs. neutral &amp; positive</text><g class="layers" style="opacity: 1;"><g class="legendfill"/><g class="legendlines"><path class="js-line" d="M5,0h30" style="fill: none; stroke: rgb(239, 85, 59); stroke-opacity: 1; stroke-width: 2px;"/></g><g class="legendsymbols"><g class="legendpoints"/></g></g><rect class="legendtoggle" pointer-events="all" x="0" y="-9.5" width="223.84375" height="19" style="cursor: pointer; fill: rgb(0, 0, 0); fill-opacity: 0;"/></g><g class="traces" transform="translate(0, 52.5)" style="opacity: 1;"><text class="legendtext user-select-none" text-anchor="start" x="40" y="4.680000000000001" style="font-family: 'Open Sans', verdana, arial, sans-serif; font-size: 12px; fill: rgb(42, 63, 95); fill-opacity: 1; white-space: pre;">negative vs. positive</text><g class="layers" style="opacity: 1;"><g class="legendfill"/><g class="legendlines"><path class="js-line" d="M5,0h30" style="fill: none; stroke: rgb(0, 204, 150); stroke-opacity: 1; stroke-width: 2px;"/></g><g class="legendsymbols"><g class="legendpoints"/></g></g><rect class="legendtoggle" pointer-events="all" x="0" y="-9.5" width="223.84375" height="19" style="cursor: pointer; fill: rgb(0, 0, 0); fill-opacity: 0;"/></g></g></g><rect class="scrollbar" rx="20" ry="3" width="0" height="0" x="0" y="0" style="fill: rgb(128, 139, 164); fill-opacity: 1;"/></g><g class="g-gtitle"/><g class="g-xtitle"/><g class="g-ytitle"/></g></svg>