<svg class="main-svg" xmlns="http://www.w3.org/2000/svg" xmlns:xlink="http://www.w3.org/1999/xlink" width="700" height="500" viewBox="0 0 700 500"><rect x="0" y="0" width="700" height="500" style="fill: rgb(255, 255, 255); fill-opacity: 1;"/><defs id="defs-f34482"><g class="clips"><clipPath id="clipf34482xyplot" class="plotclip"><rect width="372" height="320"/></clipPath><clipPath class="axesclip" id="clipf34482x"><rect x="80" y="0" width="372" height="500"/></clipPath><clipPath class="axesclip" id="clipf34482y"><rect x="0" y="100" width="700" height="320"/></clipPath><clipPath class="axesclip" id="clipf34482xy"><rect x="80" y="100" width="372" height="320"/></clipPath></g><g class="gradients"/></defs><g class="bglayer"><rect class="bg" x="80" y="100" width="372" height="320" style="fill: rgb(229, 236, 246); fill-opacity: 1; stroke-width: 0;"/></g><g class="layer-below"><g class="imagelayer"/><g class="shapelayer"/></g><g class="cartesianlayer"><g class="subplot xy"><g class="layer-subplot"><g class="shapelayer"/><g class="imagelayer"/></g><g class="gridlayer"><g class="x"><path class="xgrid crisp" transform="translate(154.4,0)" d="M0,100v320" style="stroke: rgb(255, 255, 255); stroke-opacity: 1; stroke-width: 1px;"/><path class="xgrid crisp" transform="translate(228.8,0)" d="M0,100v320" style="stroke: rgb(255, 255, 255); stroke-opacity: 1; stroke-width: 1px;"/><path class="xgrid crisp" transform="translate(303.2,0)" d="M0,100v320" style="stroke: rgb(255, 255, 255); stroke-opacity: 1; stroke-width: 1px;"/><path class="xgrid crisp" transform="translate(377.6,0)" d="M0,100v320" style="stroke: rgb(255, 255, 255); stroke-opacity: 1; stroke-width: 1px;"/></g><g class="y"><path class="ygrid crisp" transform="translate(0,346.4)" d="M80,0h372" style="stroke: rgb(255, 255, 255); stroke-opacity: 1; stroke-width: 1px;"/><path class="ygrid crisp" transform="translate(0,288.8)" d="M80,0h372" style="stroke: rgb(255, 255, 255); stroke-opacity: 1; stroke-width: 1px;"/><path class="ygrid crisp" transform="translate(0,231.2)" d="M80,0h372" style="stroke: rgb(255, 255, 255); stroke-opacity: 1; stroke-width: 1px;"/><path class="ygrid crisp" transform="translate(0,173.6)" d="M80,0h372" style="stroke: rgb(255, 255, 255); stroke-opacity: 1; stroke-width: 1px;"/><path class="ygrid crisp" transform="translate(0,116)" d="M80,0h372" style="stroke: rgb(255, 255, 255); stroke-opacity: 1; stroke-width: 1px;"/></g></g><g class="zerolinelayer"><path class="xzl zl crisp" transform="translate(80,0)" d="M0,100v320" style="stroke: rgb(255, 255, 255); stroke-opacity: 1; stroke-width: 2px;"/><path class="yzl zl crisp" transform="translate(0,404)" d="M80,0h372" style="stroke: rgb(255, 255, 255); stroke-opacity: 1; stroke-width: 2px;"/></g><path class="xlines-below"/><path class="ylines-below"/><g class="overlines-below"/><g class="xaxislayer-below"/><g class="yaxislayer-below"/><g class="overaxes-below"/><g class="plot" transform="translate(80, 100)" clip-path="url('#clipf34482xyplot')"><g class="scatterlayer mlayer"><g class="trace scatter trace49f87e" style="stroke-miterlimit: 2; opacity: 1;"><g class="fills"/><g class="errorbars"/><g class="lines"><path class="js-line" d="M0,304L0,300.84L1.18,300.84L1.18,297.67L3.53,297.67L3.53,296.09L4.71,296.09L4.71,291.34L7.06,291.34L7.06,289.76L8.24,289.76L8.24,288.18L9.42,288.18L9.42,269.19L11.77,269.19L11.77,261.27L12.95,261.27L12.95,259.69L14.13,259.69L14.13,256.53L15.3,256.53L15.3,253.36L16.48,253.36L16.48,240.7L18.84,240.7L18.84,239.12L22.37,239.12L22.37,231.21L27.08,231.21L27.08,229.63L28.25,229.63L28.25,226.46L29.43,226.46L29.43,221.71L31.78,221.71L31.78,218.55L32.96,218.55L32.96,213.8L34.14,213.8L34.14,212.22L36.49,212.22L36.49,202.73L40.03,202.73L40.03,199.56L42.38,199.56L42.38,197.98L43.56,197.98L43.56,196.4L44.73,196.4L44.73,190.07L45.91,190.07L45.91,188.48L47.09,188.48L47.09,183.74L48.27,183.74L48.27,182.15L50.62,182.15L50.62,180.57L51.8,180.57L51.8,177.41L52.97,177.41L52.97,172.66L55.33,172.66L55.33,171.08L57.68,171.08L57.68,167.91L60.04,167.91L60.04,163.16L61.22,163.16L61.22,160L63.57,160L63.57,158.42L64.75,158.42L64.75,156.84L65.92,156.84L65.92,153.67L67.1,153.67L67.1,152.09L68.28,152.09L68.28,148.92L70.63,148.92L70.63,144.18L76.52,144.18L76.52,142.59L80.05,142.59L80.05,139.43L82.41,139.43L82.41,137.85L83.58,137.85L83.58,131.52L88.29,131.52L88.29,128.35L89.47,128.35L89.47,122.02L90.65,122.02L90.65,118.86L93,118.86L93,117.27L95.35,117.27L95.35,112.53L96.53,112.53L96.53,109.36L102.42,109.36L102.42,104.62L104.77,104.62L104.77,101.45L105.95,101.45L105.95,99.87L107.13,99.87L107.13,98.29L108.3,98.29L108.3,95.12L111.84,95.12L111.84,93.54L116.54,93.54L116.54,90.37L121.25,90.37L121.25,87.21L130.67,87.21L130.67,85.63L133.03,85.63L133.03,84.04L137.73,84.04L137.73,80.88L141.27,80.88L141.27,79.3L145.97,79.3L145.97,77.71L149.51,77.71L149.51,74.55L150.68,74.55L150.68,72.97L151.86,72.97L151.86,71.38L153.04,71.38L153.04,69.8L158.92,69.8L158.92,68.22L160.1,68.22L160.1,66.64L161.28,66.64L161.28,63.47L163.63,63.47L163.63,61.89L169.52,61.89L169.52,60.31L175.41,60.31L175.41,57.14L180.11,57.14L180.11,55.56L182.47,55.56L182.47,53.98L183.65,53.98L183.65,52.4L190.71,52.4L190.71,50.81L208.37,50.81L208.37,47.65L211.9,47.65L211.9,46.07L217.78,46.07L217.78,42.9L223.67,42.9L223.67,39.74L229.56,39.74L229.56,38.15L233.09,38.15L233.09,36.57L236.62,36.57L236.62,33.41L242.51,33.41L242.51,31.82L243.68,31.82L243.68,30.24L249.57,30.24L249.57,28.66L263.7,28.66L263.7,27.08L268.41,27.08L268.41,25.49L270.76,25.49L270.76,23.91L273.11,23.91L273.11,20.75L287.24,20.75L287.24,19.16L304.9,19.16L304.9,17.58L309.61,17.58L309.61,16L372,16" style="vector-effect: non-scaling-stroke; fill: none; stroke: rgb(99, 110, 250); stroke-opacity: 1; stroke-width: 2px; opacity: 1;"/></g><g class="points"/><g class="text"/></g><g class="trace scatter trace3be02c" style="stroke-miterlimit: 2; opacity: 1;"><g class="fills"/><g class="errorbars"/><g class="lines"><path class="js-line" d="M0,304L0,302.21L2.1,302.21L2.1,300.41L4.2,300.41L4.2,298.62L6.31,298.62L6.31,295.03L8.41,295.03L8.41,279.78L10.51,279.78L10.51,268.11L12.61,268.11L12.61,257.35L14.71,257.35L14.71,251.07L16.81,251.07L16.81,248.37L18.92,248.37L18.92,242.99L21.02,242.99L21.02,236.71L23.12,236.71L23.12,208L25.22,208L25.22,196.34L27.32,196.34L27.32,186.47L29.42,186.47L29.42,171.21L31.53,171.21L31.53,155.07L35.73,155.07L35.73,147.89L37.83,147.89L37.83,146.09L39.93,146.09L39.93,143.4L42.03,143.4L42.03,140.71L44.14,140.71L44.14,136.22L48.34,136.22L48.34,132.64L50.44,132.64L50.44,123.66L52.54,123.66L52.54,121.87L54.64,121.87L54.64,120.07L56.75,120.07L56.75,118.28L58.85,118.28L58.85,112.9L60.95,112.9L60.95,108.41L63.05,108.41L63.05,99.44L69.36,99.44L69.36,98.54L71.46,98.54L71.46,94.06L75.66,94.06L75.66,92.26L77.76,92.26L77.76,85.98L81.97,85.98L81.97,84.19L84.07,84.19L84.07,79.7L86.17,79.7L86.17,77.91L90.37,77.91L90.37,77.01L92.47,77.01L92.47,76.11L94.58,76.11L94.58,74.32L98.78,74.32L98.78,72.52L100.88,72.52L100.88,68.04L102.98,68.04L102.98,63.55L107.19,63.55L107.19,62.65L109.29,62.65L109.29,60.86L117.69,60.86L117.69,56.37L119.8,56.37L119.8,55.48L124,55.48L124,52.79L128.2,52.79L128.2,50.99L134.51,50.99L134.51,50.09L136.61,50.09L136.61,47.4L138.71,47.4L138.71,46.5L142.92,46.5L142.92,44.71L153.42,44.71L153.42,43.81L157.63,43.81L157.63,42.02L163.93,42.02L163.93,40.22L170.24,40.22L170.24,39.33L172.34,39.33L172.34,38.43L174.44,38.43L174.44,37.53L182.85,37.53L182.85,35.74L195.46,35.74L195.46,34.84L205.97,34.84L205.97,33.94L208.07,33.94L208.07,33.05L212.27,33.05L212.27,32.15L214.37,32.15L214.37,30.36L218.58,30.36L218.58,28.56L226.98,28.56L226.98,24.97L231.19,24.97L231.19,24.07L233.29,24.07L233.29,23.18L248,23.18L248,22.28L262.71,22.28L262.71,21.38L271.12,21.38L271.12,20.49L273.22,20.49L273.22,19.59L275.32,19.59L275.32,18.69L327.86,18.69L327.86,17.79L340.47,17.79L340.47,16L372,16" style="vector-effect: non-scaling-stroke; fill: none; stroke: rgb(239, 85, 59); stroke-opacity: 1; stroke-width: 2px; opacity: 1;"/></g><g class="points"/><g class="text"/></g><g class="trace scatter tracee8ad31" style="stroke-miterlimit: 2; opacity: 1;"><g class="fills"/><g class="errorbars"/><g class="lines"><path class="js-line" d="M0,304L0,300.84L2.1,300.84L2.1,297.67L4.2,297.67L4.2,296.09L6.31,296.09L6.31,291.34L8.41,291.34L8.41,269.19L10.51,269.19L10.51,253.36L12.61,253.36L12.61,239.12L14.71,239.12L14.71,231.21L16.81,231.21L16.81,229.63L18.92,229.63L18.92,221.71L21.02,221.71L21.02,213.8L23.12,213.8L23.12,182.15L25.22,182.15L25.22,171.08L27.32,171.08L27.32,160L29.42,160L29.42,144.18L31.53,144.18L31.53,131.52L35.73,131.52L35.73,122.02L37.83,122.02L37.83,118.86L39.93,118.86L39.93,117.27L42.03,117.27L42.03,112.53L44.14,112.53L44.14,109.36L48.34,109.36L48.34,104.62L50.44,104.62L50.44,95.12L52.54,95.12L52.54,93.54L56.75,93.54L56.75,90.37L58.85,90.37L58.85,87.21L63.05,87.21L63.05,80.88L69.36,80.88L69.36,79.3L71.46,79.3L71.46,77.71L75.66,77.71L75.66,74.55L77.76,74.55L77.76,69.8L81.97,69.8L81.97,68.22L84.07,68.22L84.07,63.47L86.17,63.47L86.17,61.89L92.47,61.89L92.47,60.31L98.78,60.31L98.78,57.14L100.88,57.14L100.88,55.56L102.98,55.56L102.98,52.4L109.29,52.4L109.29,50.81L124,50.81L124,47.65L128.2,47.65L128.2,46.07L136.61,46.07L136.61,42.9L142.92,42.9L142.92,39.74L153.42,39.74L153.42,38.15L157.63,38.15L157.63,36.57L163.93,36.57L163.93,33.41L172.34,33.41L172.34,31.82L174.44,31.82L174.44,30.24L182.85,30.24L182.85,28.66L205.97,28.66L205.97,27.08L212.27,27.08L212.27,25.49L214.37,25.49L214.37,23.91L218.58,23.91L218.58,20.75L233.29,20.75L233.29,19.16L262.71,19.16L262.71,17.58L271.12,17.58L271.12,16L372,16" style="vector-effect: non-scaling-stroke; fill: none; stroke: rgb(0, 204, 150); stroke-opacity: 1; stroke-width: 2px; opacity: 1;"/></g><g class="points"/><g class="text"/></g></g></g><g class="overplot"/><path class="xlines-above crisp" d="M0,0" style="fill: none;"/><path class="ylines-above crisp" d="M0,0" style="fill: none;"/><g class="overlines-above"/><g class="xaxislayer-above"><g class="xtick"><text text-anchor="middle" x="0" y="433" transform="translate(80,0)" style="font-family: 'Open Sans', verdana, arial, sans-serif; font-size: 12px; fill: rgb(42, 63, 95); fill-opacity: 1; white-space: pre;">0</text></g><g class="xtick"><text text-anchor="middle" x="0" y="433" transform="translate(154.4,0)" style="font-family: 'Open Sans', verdana, arial, sans-serif; font-size: 12px; fill: rgb(42, 63, 95); fill-opacity: 1; white-space: pre;">0.2</text></g><g class="xtick"><text text-anchor="middle" x="0" y="433" transform="translate(228.8,0)" style="font-family: 'Open Sans', verdana, arial, sans-serif; font-size: 12px; fill: rgb(42, 63, 95); fill-opacity: 1; white-space: pre;">0.4</text></g><g class="xtick"><text text-anchor="middle" x="0" y="433" transform="translate(303.2,0)" style="font-family: 'Open Sans', verdana, arial, sans-serif; font-size: 12px; fill: rgb(42, 63, 95); fill-opacity: 1; white-space: pre;">0.6</text></g><g class="xtick"><text text-anchor="middle" x="0" y="433" transform="translate(377.6,0)" style="font-family: 'Open Sans', verdana, arial, sans-serif; font-size: 12px; fill: rgb(42, 63, 95); fill-opacity: 1; white-space: pre;">0.8</text></g><g class="xtick"><text text-anchor="middle" x="0" y="433" transform="translate(452,0)" style="font-family: 'Open Sans', verdana, arial, sans-serif; font-size: 12px; fill: rgb(42, 63, 95); fill-opacity: 1; white-space: pre;">1</text></g></g><g class="yaxislayer-above"><g class="ytick"><text text-anchor="end" x="79" y="4.199999999999999" transform="translate(0,404)" style="font-family: 'Open Sans', verdana, arial, sans-serif; font-size: 12px; fill: rgb(42, 63, 95); fill-opacity: 1; white-space: pre;">0</text></g><g class="ytick"><text text-anchor="end" x="79" y="4.199999999999999" transform="translate(0,346.4)" style="font-family: 'Open Sans', verdana, arial, sans-serif; font-size: 12px; fill: rgb(42, 63, 95); fill-opacity: 1; white-space: pre;">0.2</text></g><g class="ytick"><text text-anchor="end" x="79" y="4.199999999999999" transform="translate(0,288.8)" style="font-family: 'Open Sans', verdana, arial, sans-serif; font-size: 12px; fill: rgb(42, 63, 95); fill-opacity: 1; white-space: pre;">0.4</text></g><g class="ytick"><text text-anchor="end" x="79" y="4.199999999999999" transform="translate(0,231.2)" style="font-family: 'Open Sans', verdana, arial, sans-serif; font-size: 12px; fill: rgb(42, 63, 95); fill-opacity: 1; white-space: pre;">0.6</text></g><g class="ytick"><text text-anchor="end" x="79" y="4.199999999999999" transform="translate(0,173.6)" style="font-family: 'Open Sans', verdana, arial, sans-serif; font-size: 12px; fill: rgb(42, 63, 95); fill-opacity: 1; white-space: pre;">0.8</text></g><g class="ytick"><text text-anchor="end" x="79" y="4.199999999999999" transform="translate(0,116)" style="font-family: 'Open Sans', verdana, arial, sans-serif; font-size: 12px; fill: rgb(42, 63, 95); fill-opacity: 1; white-space: pre;">1</text></g></g><g class="overaxes-above"/></g></g><g class="polarlayer"/><g class="ternarylayer"/><g class="geolayer"/><g class="funnelarealayer"/><g class="pielayer"/><g class="treemaplayer"/><g class="sunburstlayer"/><g class="glimages"/><defs id="topdefs-f34482"><g class="clips"/><clipPath id="legendf34482"><rect width="229" height="67" x="0" y="0"/></clipPath></defs><g class="layer-above"><g class="imagelayer"/><g class="shapelayer"/></g><g class="infolayer"><g class="legend" pointer-events="all" transform="translate(459.44, 100)"><rect class="bg" shape-rendering="crispEdges" style="stroke: rgb(68, 68, 68); stroke-opacity: 1; fill: rgb(255, 255, 255); fill-opacity: 1; stroke-width: 0px;" width="229" height="67" x="0" y="0"/><g class="scrollbox" transform="translate(0, 0)" clip-path="url('#legendf34482')"><g class="groups"><g class="traces" transform="translate(0, 14.5)" style="opacity: 1;"><text class="legendtext user-select-none" text-anchor="start" x="40" y="4.680000000000001" style="font-family: 'Open Sans', verdana, arial, sans-serif; font-size: 12px; fill: rgb(42, 63, 95); fill-opacity: 1; white-space: pre;">positive vs. neutral &amp; negative</text><g class="layers" style="opacity: 1;"><g class="legendfill"/><g class="legendlines"><path class="js-line" d="M5,0h30" style="fill: none; stroke: rgb(99, 110, 250); stroke-opacity: 1; stroke-width: 2px;"/></g><g class="legendsymbols"><g class="legendpoints"/></g></g><rect class="legendtoggle" pointer-events="all" x="0" y="-9.5" width="223.84375" height="19" style="cursor: pointer; fill: rgb(0, 0, 0); fill-opacity: 0;"/></g><g class="traces" transform="translate(0, 33.5)" style="opacity: 1;"><text class="legendtext user-select-none" text-anchor="start" x="40" y="4.680000000000001" style="font-family: 'Open Sans', verdana, arial, sans-serif; font-size: 12px; fill: rgb(42, 63, 95); fill-opacity: 1; white-space: pre;">negative vs. neutral &amp; positive</text><g class="layers" style="opacity: 1;"><g class="legendfill"/><g class="legendlines"><path class="js-line" d="M5,0h30" style="fill: none; stroke: rgb(239, 85, 59); stroke-opacity: 1; stroke-width: 2px;"/></g><g class="legendsymbols"><g class="legendpoints"/></g></g><rect class="legendtoggle" pointer-events="all" x="0" y="-9.5" width="223.84375" height="19" style="cursor: pointer; fill: rgb(0, 0, 0); fill-opacity: 0;"/></g><g class="traces" transform="translate(0, 52.5)" style="opacity: 1;"><text class="legendtext user-select-none" text-anchor="start" x="40" y="4.680000000000001" style="font-family: 'Open Sans', verdana, arial, sans-serif; font-size: 12px; fill: rgb(42, 63, 95); fill-opacity: 1; white-space: pre;">negative vs. positive</text><g class="layers" style="opacity: 1;"><g class="legendfill"/><g class="legendlines"><path class="js-line" d="M5,0h30" style="fill: none; stroke: rgb(0, 204, 150); stroke-opacity: 1; stroke-width: 2px;"/></g><g class="legendsymbols"><g class="legendpoints"/></g></g><rect class="legendtoggle" pointer-events="all" x="0" y="-9.5" width="223.84375" height="19" style="cursor: pointer; fill: rgb(0, 0, 0); fill-opacity: 0;"/></g></g></g><rect class="scrollbar" rx="20" ry="3" width="0" height="0" style="fill: rgb(128, 139, 164); fill-opacity: 1;" x="0" y="0"/></g><g class="g-gtitle"/><g class="g-xtitle"/><g class="g-ytitle"/></g></svg>